<svg xmlns="http://www.w3.org/2000/svg" width="1024" height="1024" viewBox="0 0 1024 1024">
  <defs>
    <linearGradient id="letterGrad2" x1="0%" y1="0%" x2="100%" y2="100%">
      <stop offset="0%" stop-color="#ffffff"/>
      <stop offset="100%" stop-color="#e9d5ff"/>
    </linearGradient>
    <radialGradient id="sunGrad2" cx="50%" cy="50%" r="50%">
      <stop offset="0%" stop-color="#fcd34d"/>
      <stop offset="70%" stop-color="#f59e0b"/>
      <stop offset="100%" stop-color="#d97706"/>
    </radialGradient>
    <radialGradient id="glowGrad2" cx="50%" cy="50%" r="50%">
      <stop offset="0%" stop-color="#fcd34d" stop-opacity="0.5"/>
      <stop offset="100%" stop-color="#fcd34d" stop-opacity="0"/>
    </radialGradient>
  </defs>
  <!-- Centered D for adaptive icon (needs margin for safe zone) -->
  <path d="M320 280 L320 744 L500 744 C660 744 768 652 768 512 C768 372 660 280 500 280 L320 280 Z
           M410 360 L485 360 C590 360 670 425 670 512 C670 599 590 664 485 664 L410 664 L410 360 Z"
        fill="url(#letterGrad2)" fill-rule="evenodd"/>
  <!-- Sun glow -->
  <circle cx="700" cy="340" r="130" fill="url(#glowGrad2)"/>
  <!-- Sun -->
  <circle cx="700" cy="340" r="85" fill="url(#sunGrad2)"/>
  <!-- Sun highlight -->
  <circle cx="675" cy="315" r="25" fill="#fef3c7" opacity="0.6"/>
</svg>