<svg xmlns="http://www.w3.org/2000/svg" width="1024" height="1024" viewBox="0 0 1024 1024">
  <defs>
    <linearGradient id="bgGrad" x1="0%" y1="0%" x2="100%" y2="100%">
      <stop offset="0%" stop-color="#7c3aed"/>
      <stop offset="50%" stop-color="#6d28d9"/>
      <stop offset="100%" stop-color="#5b21b6"/>
    </linearGradient>
    <linearGradient id="letterGrad" x1="0%" y1="0%" x2="100%" y2="100%">
      <stop offset="0%" stop-color="#ffffff"/>
      <stop offset="100%" stop-color="#e9d5ff"/>
    </linearGradient>
    <radialGradient id="sunGrad" cx="50%" cy="50%" r="50%">
      <stop offset="0%" stop-color="#fcd34d"/>
      <stop offset="70%" stop-color="#f59e0b"/>
      <stop offset="100%" stop-color="#d97706"/>
    </radialGradient>
    <radialGradient id="glowGrad" cx="50%" cy="50%" r="50%">
      <stop offset="0%" stop-color="#fcd34d" stop-opacity="0.5"/>
      <stop offset="100%" stop-color="#fcd34d" stop-opacity="0"/>
    </radialGradient>
  </defs>
  <!-- Background with iOS rounded corners -->
  <rect x="0" y="0" width="1024" height="1024" rx="225" ry="225" fill="url(#bgGrad)"/>
  <!-- Stylized D - the horizon symbol -->
  <path d="M286 225 L286 799 L491 799 C676 799 799 676 799 512 C799 348 676 225 491 225 L286 225 Z
           M389 328 L471 328 C594 328 686 410 686 512 C686 614 594 696 471 696 L389 696 L389 328 Z"
        fill="url(#letterGrad)" fill-rule="evenodd"/>
  <!-- Sun glow -->
  <circle cx="737" cy="328" r="164" fill="url(#glowGrad)"/>
  <!-- The amber sun - tomorrow rising -->
  <circle cx="737" cy="328" r="102" fill="url(#sunGrad)"/>
  <!-- Sun highlight -->
  <circle cx="706" cy="297" r="31" fill="#fef3c7" opacity="0.6"/>
</svg>