<svg xmlns="http://www.w3.org/2000/svg" width="1284" height="2778" viewBox="0 0 1284 2778">
  <defs>
    <linearGradient id="splashBg" x1="0%" y1="0%" x2="0%" y2="100%">
      <stop offset="0%" stop-color="#1e1b4b"/>
      <stop offset="50%" stop-color="#0f172a"/>
      <stop offset="100%" stop-color="#0c0f1a"/>
    </linearGradient>
    <linearGradient id="textGrad" x1="0%" y1="0%" x2="100%" y2="100%">
      <stop offset="0%" stop-color="#c4b5fd"/>
      <stop offset="50%" stop-color="#a78bfa"/>
      <stop offset="100%" stop-color="#8b5cf6"/>
    </linearGradient>
    <radialGradient id="ambientGlow" cx="50%" cy="40%" r="40%">
      <stop offset="0%" stop-color="#7c3aed" stop-opacity="0.15"/>
      <stop offset="100%" stop-color="#7c3aed" stop-opacity="0"/>
    </radialGradient>
    <radialGradient id="sunGrad3" cx="50%" cy="50%" r="50%">
      <stop offset="0%" stop-color="#fcd34d"/>
      <stop offset="70%" stop-color="#f59e0b"/>
      <stop offset="100%" stop-color="#d97706"/>
    </radialGradient>
  </defs>

  <!-- Background -->
  <rect width="1284" height="2778" fill="url(#splashBg)"/>

  <!-- Ambient glow -->
  <ellipse cx="642" cy="1200" rx="700" ry="700" fill="url(#ambientGlow)"/>

  <!-- D Monogram centered -->
  <g transform="translate(442, 1089)">
    <!-- Simplified D for splash - 400x400 -->
    <path d="M0 0 L0 400 L143 400 C272 400 357 307 357 200 C357 93 272 0 143 0 L0 0 Z
             M72 72 L129 72 C214 72 271 128 271 200 C271 272 214 328 129 328 L72 328 L72 72 Z"
          fill="url(#textGrad)" fill-rule="evenodd"/>
    <!-- Sun glow -->
    <circle cx="315" cy="72" r="80" fill="url(#ambientGlow)"/>
    <!-- Sun -->
    <circle cx="315" cy="72" r="50" fill="url(#sunGrad3)"/>
  </g>

  <!-- "domani" wordmark below -->
  <text x="642" y="1620" text-anchor="middle"
        fill="url(#textGrad)"
        font-family="-apple-system, BlinkMacSystemFont, 'SF Pro Display', 'Helvetica Neue', Arial, sans-serif"
        font-size="100"
        font-weight="500"
        letter-spacing="4">domani</text>

  <!-- Tagline -->
  <text x="642" y="1720" text-anchor="middle"
        fill="#f59e0b"
        font-family="-apple-system, BlinkMacSystemFont, 'SF Pro Display', 'Helvetica Neue', Arial, sans-serif"
        font-size="32"
        font-weight="500"
        letter-spacing="6"
        opacity="0.85">PLAN TOMORROW TONIGHT</text>
</svg>